<?xml version="1.0" encoding="UTF-8" standalone="no"?>
<!-- Created with Inkscape (http://www.inkscape.org/) -->

<svg
   xmlns:dc="http://purl.org/dc/elements/1.1/"
   xmlns:cc="http://creativecommons.org/ns#"
   xmlns:rdf="http://www.w3.org/1999/02/22-rdf-syntax-ns#"
   xmlns:svg="http://www.w3.org/2000/svg"
   xmlns="http://www.w3.org/2000/svg"
   xmlns:sodipodi="http://sodipodi.sourceforge.net/DTD/sodipodi-0.dtd"
   xmlns:inkscape="http://www.inkscape.org/namespaces/inkscape"
   width="108.19268mm"
   height="108.49033mm"
   viewBox="0 0 108.19268 108.49033"
   version="1.1"
   id="svg8"
   inkscape:version="0.92.4 (f8dce91, 2019-08-02)"
   sodipodi:docname="Flat2.svg">
  <defs
     id="defs2">
    <marker
       style="overflow:visible"
       refY="0"
       refX="0"
       orient="auto"
       id="DistanceX">
      <path
         id="path88"
         style="stroke:#000000;stroke-width:0.5"
         d="M 3,-3 -3,3 M 0,-5 V 5"
         inkscape:connector-curvature="0" />
    </marker>
    <pattern
       y="0"
       x="0"
       width="8"
       patternUnits="userSpaceOnUse"
       id="Hatch"
       height="8">
      <path
         id="path91"
         stroke-width="0.25"
         stroke="#000000"
         linecap="square"
         d="M8 4 l-4,4" />
      <path
         id="path93"
         stroke-width="0.25"
         stroke="#000000"
         linecap="square"
         d="M6 2 l-4,4" />
      <path
         id="path95"
         stroke-width="0.25"
         stroke="#000000"
         linecap="square"
         d="M4 0 l-4,4" />
    </pattern>
    <symbol
       id="*Model_Space" />
    <symbol
       id="*Paper_Space" />
  </defs>
  <sodipodi:namedview
     id="base"
     pagecolor="#ffffff"
     bordercolor="#666666"
     borderopacity="1.0"
     inkscape:pageopacity="0.0"
     inkscape:pageshadow="2"
     inkscape:zoom="0.35"
     inkscape:cx="231.40374"
     inkscape:cy="81.687413"
     inkscape:document-units="mm"
     inkscape:current-layer="layer1"
     showgrid="false"
     fit-margin-top="10"
     fit-margin-left="10"
     fit-margin-right="10"
     fit-margin-bottom="10"
     inkscape:window-width="1299"
     inkscape:window-height="713"
     inkscape:window-x="67"
     inkscape:window-y="27"
     inkscape:window-maximized="1" />
  <metadata
     id="metadata5">
    <rdf:RDF>
      <cc:Work
         rdf:about="">
        <dc:format>image/svg+xml</dc:format>
        <dc:type
           rdf:resource="http://purl.org/dc/dcmitype/StillImage" />
        <dc:title></dc:title>
      </cc:Work>
    </rdf:RDF>
  </metadata>
  <g
     inkscape:label="Layer 1"
     inkscape:groupmode="layer"
     id="layer1"
     transform="translate(-44.607761,-61.956133)">
    <g
       id="g188"
       transform="translate(-13.379316,-33.334343)">
      <path
         transform="scale(0.26458333)"
         inkscape:connector-curvature="0"
         id="path179"
         d="m 256.98276,730.09111 c 17.81871,-28.92645 113.26728,-196.73464 113.17969,-198.98126 -0.0678,-1.73888 -8.76791,-17.94731 -19.33361,-36.01874 l -19.21035,-32.85714 -19.23782,-0.84483 -19.23781,-0.84483 v -31.29802 -31.29803 l 37.85714,0.0969 37.85714,0.0969 77.67788,134.90313 77.67787,134.90314 18.75071,0.84483 18.75069,0.84482 v 31.38098 31.38094 l -37.44974,-0.7972 -37.44974,-0.79723 -37.70568,-65.32263 c -20.73812,-35.92745 -38.92146,-65.37286 -40.4074,-65.43423 -1.48595,-0.0614 -19.90624,29.65523 -40.93398,66.03692 l -38.23225,66.14851 h -36.93637 c -20.315,0 -36.34237,-0.96428 -35.61637,-2.14286 z"
         style="fill:#0000ff;stroke-width:2.85714293" />
      <path
         transform="scale(0.26458333)"
         inkscape:connector-curvature="0"
         id="path181"
         d="m 430.51949,430.52136 c -9.55715,-16.65623 -17.37663,-30.79908 -17.37663,-31.42857 0,-0.6295 39.85714,-1.14453 88.57143,-1.14453 h 88.57142 v 31.42857 31.42857 h -71.19479 -71.1948 z"
         style="fill:#0000ff;stroke-width:2.85714293" />
      <path
         transform="scale(0.26458333)"
         inkscape:connector-curvature="0"
         id="path183"
         d="m 513.47865,573.95625 c -7.79405,-13.1956 -16.23395,-27.98131 -18.75534,-32.85714 l -4.58434,-8.86514 h 50.07337 50.07337 v 32.85714 32.85715 h -31.31803 -31.31803 z"
         style="fill:#0000ff;stroke-width:2.85714293" />
    </g>
  </g>
</svg>
